<svg id="service-google" xmlns="http://www.w3.org/2000/svg" viewBox="0 0 124 124">
  <path fill="#dc4e41" d="M0 0h124v124H0z"/>
  <path fill="#fff" fill-rule="nonzero" d="M51.3 28.92c-8.592 3.007-15.688 9.24-19.78 17.37-1.39 2.79-2.4 5.752-3 8.81C25.917 67.953 30.748 81.233 41 89.41c3.742 2.992 8.063 5.178 12.69 6.42 5.845 1.5 11.968 1.56 17.84.17 11.188-2.455 20.123-10.95 23.14-22 1.707-6.048 2.008-12.408.88-18.59H62.71v13.7h19c-.77 4.405-3.297 8.313-7 10.82-2.327 1.524-4.946 2.546-7.69 3-2.753.507-5.577.507-8.33 0-2.765-.575-5.382-1.712-7.69-3.34-3.735-2.643-6.537-6.405-8-10.74-1.49-4.417-1.49-9.203 0-13.62 1.034-3.08 2.743-5.892 5-8.23 5.326-5.53 13.33-7.62 20.68-5.4 2.83.85 5.422 2.36 7.56 4.4l6.42-6.43c1.13-1.15 2.31-2.26 3.4-3.44-3.252-3.047-7.07-5.426-11.24-7-7.576-2.772-15.88-2.854-23.51-.23l-.01.02z"/>
</svg>