<?xml version="1.0" encoding="UTF-8" standalone="no"?>
<svg width="193px" height="45px" viewBox="0 0 193 45" version="1.1" xmlns="http://www.w3.org/2000/svg" xmlns:xlink="http://www.w3.org/1999/xlink" xmlns:sketch="http://www.bohemiancoding.com/sketch/ns">
    <!-- Generator: Sketch 3.4.4 (17249) - http://www.bohemiancoding.com/sketch -->
    <title>logo-white</title>
    <desc>Created with Sketch.</desc>
    <defs></defs>
    <g id="Page-1" stroke="none" stroke-width="1" fill="none" fill-rule="evenodd" sketch:type="MSPage">
        <g id="logo-white" sketch:type="MSLayerGroup" transform="translate(1.000000, 1.000000)">
            <g id="Logos" sketch:type="MSShapeGroup">
                <g id="MeisterTask-2">
                    <g id="Group">
                        <g id="MeisterTask" transform="translate(51.008009, 6.996384)">
                            <path d="M20.1728643,24.0409091 L21.7246231,12.9 C22.1125628,9.87045455 20.0758794,7.525 17.0693467,7.525 C15.2266332,7.525 13.3839196,8.50227273 12.2201005,9.87045455 C11.4442211,8.40454545 9.89246231,7.525 8.04974874,7.525 C5.04321608,7.525 2.32763819,9.96818182 1.84271357,12.9 L0.290954774,24.0409091 C0.193969849,24.6272727 0.678894472,25.0181818 1.06683417,25.0181818 C1.45477387,25.0181818 2.03668342,24.725 2.13366834,24.0409091 L3.68542714,12.9 C3.97638191,10.9454545 5.81909548,9.38181818 7.75879397,9.38181818 C9.69849246,9.38181818 11.1532663,10.9454545 10.8623116,12.9 L9.31055276,24.0409091 C9.21356784,24.725 9.60150754,25.0181818 10.0864322,25.0181818 C10.5713568,25.0181818 11.0562814,24.725 11.1532663,24.0409091 L12.7050251,12.9 C12.9959799,10.9454545 14.7417085,9.38181818 16.778392,9.38181818 C18.8150754,9.38181818 20.1728643,10.9454545 19.8819095,12.9 L18.3301508,24.0409091 C18.2331658,24.6272727 18.7180905,25.0181818 19.1060302,25.0181818 C19.5909548,25.0181818 20.0758794,24.725 20.1728643,24.0409091 L20.1728643,24.0409091 L20.1728643,24.0409091 Z M35.7874372,15.7340909 L36.078392,13.5840909 C36.5633166,10.2613636 34.2356784,7.525 30.841206,7.525 C27.4467337,7.525 24.440201,10.2613636 23.9552764,13.5840909 L23.179397,19.35 C22.6944724,22.7704545 25.4100503,25.4090909 28.7075377,25.4090909 C30.6472362,25.4090909 32.6839196,24.725 34.0417085,23.1613636 C34.2356784,22.9659091 34.3326633,22.7704545 34.3326633,22.575 C34.4296482,22.0863636 33.9447236,21.6954545 33.459799,21.6954545 C33.1688442,21.6954545 32.8778894,21.7931818 32.5869347,22.0863636 C31.5201005,23.2590909 30.0653266,23.5522727 28.9015075,23.5522727 C26.4768844,23.5522727 24.6341709,21.5977273 25.0221106,19.35 L25.4100503,16.7113636 L34.720603,16.7113636 C35.2055276,16.6136364 35.6904523,16.2227273 35.7874372,15.7340909 L35.7874372,15.7340909 L35.7874372,15.7340909 Z M34.0417085,14.7568182 L25.701005,14.7568182 L25.8949749,13.4863636 C26.1859296,11.1409091 28.319598,9.28409091 30.6472362,9.28409091 C32.9748744,9.28409091 34.6236181,11.1409091 34.2356784,13.4863636 L34.0417085,14.7568182 L34.0417085,14.7568182 Z M38.6969849,24.0409091 L40.8306533,8.69772727 C40.9276382,8.11136364 40.5396985,7.72045455 40.0547739,7.72045455 C39.5698492,7.72045455 39.0849246,8.01363636 38.9879397,8.69772727 L36.8542714,24.0409091 C36.7572864,24.6272727 37.2422111,25.0181818 37.6301508,25.0181818 C38.0180905,25.0181818 38.6,24.725 38.6969849,24.0409091 L38.6969849,24.0409091 L38.6969849,24.0409091 Z M39.5698492,2.44318182 C39.4728643,3.12727273 39.9577889,3.71363636 40.6366834,3.71363636 C41.3155779,3.71363636 41.9944724,3.12727273 42.0914573,2.44318182 C42.1884422,1.75909091 41.7035176,1.17272727 41.0246231,1.17272727 C40.3457286,1.17272727 39.6668342,1.75909091 39.5698492,2.44318182 L39.5698492,2.44318182 L39.5698492,2.44318182 Z M51.7899497,20.425 C52.6628141,14.3659091 43.740201,15.7340909 44.3221106,11.9227273 C44.5160804,10.3590909 45.9708543,9.38181818 47.8135678,9.38181818 C48.9773869,9.38181818 50.0442211,9.87045455 50.6261307,10.75 L50.7231156,10.9454545 C50.9170854,11.2386364 51.1110553,11.3363636 51.4020101,11.3363636 C51.8869347,11.3363636 52.4688442,10.9454545 52.4688442,10.4568182 C52.4688442,10.2613636 52.4688442,10.0659091 52.3718593,9.96818182 C51.5959799,8.40454545 49.7532663,7.525 48.0075377,7.525 C45.5829146,7.525 42.7703518,8.99090909 42.3824121,11.9227273 C41.6065327,17.5909091 50.5291457,16.0272727 49.8502513,20.425 C49.6562814,22.0863636 47.9105528,23.4545455 45.5829146,23.4545455 C44.4190955,23.4545455 43.3522613,23.0636364 42.6733668,22.2818182 C42.5763819,22.1840909 42.5763819,22.0863636 42.5763819,22.0863636 C42.3824121,21.7931818 42.1884422,21.6954545 41.8974874,21.6954545 C41.4125628,21.6954545 40.9276382,22.0863636 40.8306533,22.6727273 C40.8306533,22.8681818 40.8306533,22.9659091 40.9276382,23.1613636 C41.7035176,24.6272727 43.740201,25.3113636 45.2919598,25.3113636 C48.3954774,25.3113636 51.4020101,23.4545455 51.7899497,20.425 L51.7899497,20.425 L51.7899497,20.425 Z M63.8160804,23.2590909 C63.9130653,22.7704545 63.5251256,22.2818182 63.040201,22.2818182 C62.3613065,22.2818182 61.5854271,23.3568182 59.8396985,23.3568182 C57.9969849,23.3568182 57.1241206,22.1840909 57.3180905,20.8159091 L58.8698492,9.57727273 L64.3979899,9.57727273 C64.9798995,9.57727273 65.3678392,9.08863636 65.4648241,8.6 C65.561809,8.11136364 65.2708543,7.62272727 64.6889447,7.62272727 L59.160804,7.62272727 L59.6457286,3.71363636 C59.7427136,3.12727273 59.3547739,2.73636364 58.8698492,2.73636364 C58.3849246,2.73636364 57.9,3.02954545 57.8030151,3.71363636 L57.3180905,7.62272727 L54.5055276,7.62272727 C53.9236181,7.62272727 53.4386935,8.11136364 53.4386935,8.6 C53.3417085,9.08863636 53.6326633,9.57727273 54.2145729,9.57727273 L57.0271357,9.57727273 L55.4753769,20.8159091 C55.0874372,23.2590909 56.8331658,25.2136364 59.5487437,25.2136364 C60.7125628,25.2136364 61.9733668,24.8227273 62.9432161,24.1386364 C63.4281407,23.9431818 63.7190955,23.65 63.8160804,23.2590909 L63.8160804,23.2590909 L63.8160804,23.2590909 Z M77.7819095,15.7340909 L78.0728643,13.5840909 C78.5577889,10.2613636 76.2301508,7.525 72.8356784,7.525 C69.441206,7.525 66.4346734,10.2613636 65.9497487,13.5840909 L65.1738693,19.35 C64.6889447,22.7704545 67.4045226,25.4090909 70.7020101,25.4090909 C72.6417085,25.4090909 74.678392,24.725 76.0361809,23.1613636 C76.2301508,22.9659091 76.3271357,22.7704545 76.3271357,22.575 C76.4241206,22.0863636 75.939196,21.6954545 75.4542714,21.6954545 C75.1633166,21.6954545 74.8723618,21.7931818 74.581407,22.0863636 C73.5145729,23.2590909 72.059799,23.5522727 70.8959799,23.5522727 C68.4713568,23.5522727 66.6286432,21.5977273 67.0165829,19.35 L67.4045226,16.7113636 L76.7150754,16.7113636 C77.2,16.6136364 77.7819095,16.2227273 77.7819095,15.7340909 L77.7819095,15.7340909 L77.7819095,15.7340909 Z M76.1331658,14.7568182 L67.7924623,14.7568182 L67.9864322,13.4863636 C68.2773869,11.1409091 70.4110553,9.28409091 72.7386935,9.28409091 C75.0663317,9.28409091 76.7150754,11.1409091 76.3271357,13.4863636 L76.1331658,14.7568182 L76.1331658,14.7568182 Z M90.4869347,9.675 C90.4869347,9.47954545 90.4869347,9.28409091 90.2929648,8.99090909 C89.5170854,8.01363636 87.9653266,7.42727273 86.7045226,7.42727273 C83.1160804,7.42727273 80.8854271,10.2613636 80.4005025,13.6818182 L78.9457286,24.0409091 C78.8487437,24.6272727 79.3336683,25.0181818 79.721608,25.0181818 C80.1095477,25.0181818 80.6914573,24.725 80.7884422,24.0409091 L82.2432161,13.6818182 C82.6311558,10.8477273 84.1829146,9.28409091 86.4135678,9.28409091 C87.2864322,9.28409091 88.1592965,9.57727273 88.741206,10.1636364 L88.838191,10.2613636 C89.0321608,10.4568182 89.2261307,10.5545455 89.4201005,10.5545455 C89.9050251,10.5545455 90.3899497,10.1636364 90.4869347,9.675 L90.4869347,9.675 L90.4869347,9.675 Z" id="meister" fill="#FFFFFF"></path>
                            <path d="M101.931156,23.2590909 C102.028141,22.7704545 101.640201,22.2818182 101.155276,22.2818182 C100.476382,22.2818182 99.7005025,23.3568182 97.9547739,23.3568182 C96.1120603,23.3568182 95.239196,22.1840909 95.4331658,20.8159091 L96.9849246,9.57727273 L102.513065,9.57727273 C103.094975,9.57727273 103.482915,9.08863636 103.579899,8.6 C103.676884,8.11136364 103.38593,7.62272727 102.80402,7.62272727 L97.2758794,7.62272727 L97.760804,3.71363636 C97.8577889,3.12727273 97.4698492,2.73636364 96.9849246,2.73636364 C96.5,2.73636364 96.0150754,3.02954545 95.9180905,3.71363636 L95.4331658,7.62272727 L92.620603,7.62272727 C92.0386935,7.62272727 91.5537688,8.11136364 91.5537688,8.6 C91.4567839,9.08863636 91.7477387,9.57727273 92.3296482,9.57727273 L95.1422111,9.57727273 L93.5904523,20.8159091 C93.2025126,23.2590909 94.9482412,25.2136364 97.6638191,25.2136364 C98.8276382,25.2136364 100.088442,24.8227273 101.058291,24.1386364 C101.543216,23.9431818 101.834171,23.65 101.931156,23.2590909 L101.931156,23.2590909 L101.931156,23.2590909 Z M113.957286,19.9363636 L115.024121,12.8022727 C115.41206,9.675 113.763317,7.42727273 110.174874,7.42727273 C108.429146,7.42727273 106.683417,8.11136364 105.422613,9.38181818 C105.131658,9.675 104.937688,9.96818182 104.840704,10.2613636 C104.743719,10.75 105.131658,11.1409091 105.616583,11.1409091 C106.295477,11.1409091 106.489447,10.6522727 107.168342,10.1636364 C107.847236,9.675 108.720101,9.28409091 109.88392,9.28409091 C112.405528,9.28409091 113.375377,10.6522727 113.084422,12.8022727 L112.890452,14.2681818 L108.817085,15.1477273 C105.907538,15.7340909 103.094975,17.2977273 102.707035,20.3272727 C102.222111,23.5522727 104.646734,25.3113636 107.653266,25.3113636 C110.659799,25.3113636 113.569347,23.1613636 113.957286,19.9363636 L113.957286,19.9363636 L113.957286,19.9363636 Z M112.114573,19.9363636 C111.823618,21.9886364 110.077889,23.4545455 107.847236,23.4545455 C105.616583,23.4545455 104.258794,22.1840909 104.549749,20.3272727 C104.743719,18.7636364 106.392462,17.4931818 108.526131,17.0045455 L112.696482,16.125 L112.114573,19.9363636 L112.114573,19.9363636 Z M126.371357,20.425 C127.244221,14.3659091 118.321608,15.7340909 118.903518,11.9227273 C119.097487,10.3590909 120.552261,9.38181818 122.394975,9.38181818 C123.558794,9.38181818 124.625628,9.87045455 125.207538,10.75 L125.304523,10.9454545 C125.498492,11.2386364 125.692462,11.3363636 125.983417,11.3363636 C126.468342,11.3363636 127.050251,10.9454545 127.050251,10.4568182 C127.050251,10.2613636 127.050251,10.0659091 126.953266,9.96818182 C126.177387,8.40454545 124.334673,7.525 122.588945,7.525 C120.164322,7.525 117.351759,8.99090909 116.963819,11.9227273 C116.18794,17.5909091 125.110553,16.0272727 124.431658,20.425 C124.237688,22.0863636 122.49196,23.4545455 120.164322,23.4545455 C119.000503,23.4545455 117.933668,23.0636364 117.254774,22.2818182 C117.157789,22.1840909 117.157789,22.0863636 117.157789,22.0863636 C116.963819,21.7931818 116.769849,21.6954545 116.478894,21.6954545 C115.99397,21.6954545 115.509045,22.0863636 115.41206,22.6727273 C115.41206,22.8681818 115.41206,22.9659091 115.509045,23.1613636 C116.284925,24.6272727 118.321608,25.3113636 119.873367,25.3113636 C122.976884,25.3113636 125.983417,23.4545455 126.371357,20.425 L126.371357,20.425 L126.371357,20.425 Z M139.658291,24.0409091 C139.658291,23.8454545 139.658291,23.65 139.464322,23.4545455 L134.51809,15.3431818 L140.628141,9.28409091 C140.822111,9.08863636 140.919095,8.89318182 140.919095,8.69772727 C141.01608,8.20909091 140.628141,7.72045455 140.046231,7.72045455 C139.852261,7.72045455 139.561307,7.81818182 139.270352,8.11136364 L130.541709,16.9068182 L132.675377,1.75909091 C132.772362,1.17272727 132.287437,0.781818182 131.899497,0.781818182 C131.414573,0.781818182 130.929648,1.075 130.832663,1.75909091 L127.729146,24.0409091 C127.632161,24.6272727 128.117085,25.0181818 128.505025,25.0181818 C128.98995,25.0181818 129.474874,24.725 129.571859,24.0409091 L130.153769,19.7409091 L132.966332,16.9068182 L137.718593,24.6272727 C137.912563,24.9204545 138.106533,25.0181818 138.397487,25.0181818 C138.979397,25.0181818 139.561307,24.6272727 139.658291,24.0409091 L139.658291,24.0409091 L139.658291,24.0409091 Z" id="task" fill="#00AAFF"></path>
                        </g>
                        <g id="MeisterTask_1_">
                            <ellipse id="BAdge" stroke-opacity="0.1" stroke="#000000" stroke-width="1.00010854" fill="#FFFFFF" cx="21.3366834" cy="21.5" rx="21.3366834" ry="21.5"></ellipse>
                            <g id="Check" transform="translate(7.758794, 10.750000)">
                                <path d="M3.87939698,8.89318182 L9.01959799,13.975 L23.2763819,0 L27.1557789,3.81136364 L9.01959799,21.5 L0,12.7045455 L3.87939698,8.89318182" id="Fill-1" fill="#00D5FF"></path>
                                <path d="M5.14020101,17.6886364 L3.87939698,16.4181818 L5.14020101,15.1477273 L6.40100503,16.4181818 L5.14020101,17.6886364" id="Fill-2" fill="#00A9FF"></path>
                                <path d="M3.87939698,16.4181818 L2.61859296,15.1477273 L3.87939698,13.8772727 L5.14020101,15.1477273 L3.87939698,16.4181818" id="Fill-3" fill="#00AFFF"></path>
                                <path d="M2.61859296,15.1477273 L1.35778894,13.8772727 L2.61859296,12.6068182 L3.87939698,13.8772727 L2.61859296,15.1477273" id="Fill-4" fill="#00B4FF"></path>
                                <path d="M1.26080402,13.8772727 L0,12.6068182 L1.26080402,11.3363636 L2.52160804,12.6068182 L1.26080402,13.8772727" id="Fill-5" fill="#00BAFF"></path>
                                <path d="M6.49798995,16.4181818 L5.23718593,15.1477273 L6.49798995,13.8772727 L7.75879397,15.1477273 L6.49798995,16.4181818" id="Fill-6" fill="#00A5F0"></path>
                                <path d="M5.14020101,15.1477273 L3.87939698,13.8772727 L5.14020101,12.6068182 L6.40100503,13.8772727 L5.14020101,15.1477273" id="Fill-7" fill="#26C2FF"></path>
                                <path d="M3.87939698,13.8772727 L2.61859296,12.6068182 L3.87939698,11.3363636 L5.14020101,12.6068182 L3.87939698,13.8772727" id="Fill-8" fill="#00BCFB"></path>
                                <path d="M2.61859296,12.6068182 L1.35778894,11.3363636 L2.61859296,10.0659091 L3.87939698,11.3363636 L2.61859296,12.6068182" id="Fill-9" fill="#00C3FA"></path>
                                <path d="M7.75879397,15.1477273 L6.49798995,13.8772727 L7.75879397,12.6068182 L9.01959799,13.8772727 L7.75879397,15.1477273" id="Fill-10" fill="#00B2FB"></path>
                                <path d="M6.49798995,13.8772727 L5.23718593,12.6068182 L6.49798995,11.3363636 L7.75879397,12.6068182 L6.49798995,13.8772727" id="Fill-11" fill="#00BDF8"></path>
                                <path d="M5.14020101,12.6068182 L3.87939698,11.3363636 L5.14020101,10.0659091 L6.40100503,11.3363636 L5.14020101,12.6068182" id="Fill-12" fill="#00D3FF"></path>
                                <path d="M3.87939698,11.3363636 L2.61859296,10.0659091 L3.87939698,8.89318182 L5.14020101,10.1636364 L3.87939698,11.3363636" id="Fill-13" fill="#00D3EE"></path>
                                <path d="M9.01959799,21.5 L7.75879397,20.2295455 L9.01959799,18.9590909 L10.280402,20.2295455 L9.01959799,21.5" id="Fill-14" fill="#00A9FF"></path>
                                <path d="M10.3773869,20.2295455 L9.11658291,18.9590909 L10.3773869,17.6886364 L11.638191,18.9590909 L10.3773869,20.2295455" id="Fill-15" fill="#02A3ED"></path>
                                <path d="M11.638191,18.9590909 L10.3773869,17.6886364 L11.638191,16.4181818 L12.898995,17.6886364 L11.638191,18.9590909" id="Fill-16" fill="#03B2FB"></path>
                                <path d="M12.898995,17.6886364 L11.638191,16.4181818 L12.898995,15.1477273 L14.159799,16.4181818 L12.898995,17.6886364" id="Fill-17" fill="#19C0FF"></path>
                                <path d="M14.2567839,16.4181818 L12.9959799,15.1477273 L14.2567839,13.8772727 L15.5175879,15.1477273 L14.2567839,16.4181818" id="Fill-18" fill="#07BCF8"></path>
                                <path d="M15.5175879,15.1477273 L14.2567839,13.8772727 L15.5175879,12.6068182 L16.778392,13.8772727 L15.5175879,15.1477273" id="Fill-19" fill="#07BAED"></path>
                                <path d="M16.778392,13.8772727 L15.5175879,12.6068182 L16.778392,11.3363636 L18.039196,12.6068182 L16.778392,13.8772727" id="Fill-20" fill="#09C5F3"></path>
                                <path d="M18.1361809,12.6068182 L16.8753769,11.3363636 L18.1361809,10.0659091 L19.3969849,11.3363636 L18.1361809,12.6068182" id="Fill-21" fill="#0CCAF2"></path>
                                <path d="M19.3969849,11.3363636 L18.1361809,10.0659091 L19.3969849,8.89318182 L20.6577889,10.1636364 L19.3969849,11.3363636" id="Fill-22" fill="#0FDAFC"></path>
                                <path d="M20.6577889,10.1636364 L19.3969849,8.89318182 L20.6577889,7.62272727 L21.918593,8.89318182 L20.6577889,10.1636364" id="Fill-23" fill="#0FD3EE"></path>
                                <path d="M22.0155779,8.89318182 L20.7547739,7.62272727 L22.0155779,6.35227273 L23.2763819,7.62272727 L22.0155779,8.89318182" id="Fill-24" fill="#11E2F8"></path>
                                <path d="M23.2763819,7.62272727 L22.0155779,6.35227273 L23.2763819,5.08181818 L24.5371859,6.35227273 L23.2763819,7.62272727" id="Fill-25" fill="#13DDEB"></path>
                                <path d="M24.5371859,6.35227273 L23.2763819,5.08181818 L24.5371859,3.81136364 L25.7979899,5.08181818 L24.5371859,6.35227273" id="Fill-26" fill="#16F8FF"></path>
                                <path d="M25.8949749,5.08181818 L24.6341709,3.81136364 L25.8949749,2.54090909 L27.1557789,3.81136364 L25.8949749,5.08181818" id="Fill-27" fill="#16E6E6"></path>
                                <path d="M7.75879397,20.2295455 L6.49798995,18.9590909 L7.75879397,17.6886364 L9.01959799,18.9590909 L7.75879397,20.2295455" id="Fill-28" fill="#0FAFFF"></path>
                                <path d="M9.01959799,18.9590909 L7.75879397,17.6886364 L9.01959799,16.4181818 L10.280402,17.6886364 L9.01959799,18.9590909" id="Fill-29" fill="#0EB3FD"></path>
                                <path d="M10.3773869,17.6886364 L9.11658291,16.4181818 L10.3773869,15.1477273 L11.638191,16.4181818 L10.3773869,17.6886364" id="Fill-30" fill="#0DBAFF"></path>
                                <path d="M11.638191,16.4181818 L10.3773869,15.1477273 L11.638191,13.8772727 L12.898995,15.1477273 L11.638191,16.4181818" id="Fill-31" fill="#0CBCF9"></path>
                                <path d="M12.898995,15.1477273 L11.638191,13.8772727 L12.898995,12.6068182 L14.159799,13.8772727 L12.898995,15.1477273" id="Fill-32" fill="#09C6FF"></path>
                                <path d="M14.2567839,13.8772727 L12.9959799,12.6068182 L14.2567839,11.3363636 L15.5175879,12.6068182 L14.2567839,13.8772727" id="Fill-33" fill="#08C4F6"></path>
                                <path d="M15.5175879,12.6068182 L14.2567839,11.3363636 L15.5175879,10.0659091 L16.778392,11.3363636 L15.5175879,12.6068182" id="Fill-34" fill="#07C3ED"></path>
                                <path d="M16.778392,11.3363636 L15.5175879,10.1636364 L16.778392,8.89318182 L18.039196,10.1636364 L16.778392,11.3363636" id="Fill-35" fill="#07D8FF"></path>
                                <path d="M18.1361809,10.1636364 L16.8753769,8.89318182 L18.1361809,7.62272727 L19.3969849,8.89318182 L18.1361809,10.1636364" id="Fill-36" fill="#06D1F0"></path>
                                <path d="M19.3969849,8.89318182 L18.1361809,7.62272727 L19.3969849,6.35227273 L20.6577889,7.62272727 L19.3969849,8.89318182" id="Fill-37" fill="#05D5EE"></path>
                                <path d="M20.6577889,7.62272727 L19.3969849,6.35227273 L20.6577889,5.08181818 L21.918593,6.35227273 L20.6577889,7.62272727" id="Fill-38" fill="#03D9EC"></path>
                                <path d="M22.0155779,6.35227273 L20.7547739,5.08181818 L22.0155779,3.81136364 L23.2763819,5.08181818 L22.0155779,6.35227273" id="Fill-39" fill="#02E3F0"></path>
                                <path d="M23.2763819,5.08181818 L22.0155779,3.81136364 L23.2763819,2.54090909 L24.5371859,3.81136364 L23.2763819,5.08181818" id="Fill-40" fill="#01E2E8"></path>
                                <path d="M24.5371859,3.81136364 L23.2763819,2.54090909 L24.5371859,1.27045455 L25.7979899,2.54090909 L24.5371859,3.81136364" id="Fill-41" fill="#00F2F2"></path>
                                <path d="M6.49798995,18.9590909 L5.23718593,17.6886364 L6.49798995,16.4181818 L7.75879397,17.6886364 L6.49798995,18.9590909" id="Fill-42" fill="#19B2FF"></path>
                                <path d="M7.75879397,17.6886364 L6.49798995,16.4181818 L7.75879397,15.1477273 L9.01959799,16.4181818 L7.75879397,17.6886364" id="Fill-43" fill="#1BB8FF"></path>
                                <path d="M9.01959799,16.4181818 L7.75879397,15.1477273 L9.01959799,13.8772727 L10.280402,15.1477273 L9.01959799,16.4181818" id="Fill-44" fill="#33C4FF"></path>
                                <path d="M10.3773869,15.1477273 L9.11658291,13.8772727 L10.3773869,12.6068182 L11.638191,13.8772727 L10.3773869,15.1477273" id="Fill-45" fill="#1CB4EC"></path>
                                <path d="M11.638191,13.8772727 L10.3773869,12.6068182 L11.638191,11.3363636 L12.898995,12.6068182 L11.638191,13.8772727" id="Fill-46" fill="#1FC2F4"></path>
                                <path d="M12.898995,12.6068182 L11.638191,11.3363636 L12.898995,10.0659091 L14.159799,11.3363636 L12.898995,12.6068182" id="Fill-47" fill="#23D1FF"></path>
                                <path d="M14.2567839,11.3363636 L12.9959799,10.0659091 L14.2567839,8.79545455 L15.5175879,10.0659091 L14.2567839,11.3363636" id="Fill-48" fill="#23CAEF"></path>
                                <path d="M15.5175879,10.1636364 L14.2567839,8.89318182 L15.5175879,7.62272727 L16.778392,8.89318182 L15.5175879,10.1636364" id="Fill-49" fill="#22C4E0"></path>
                                <path d="M16.778392,8.89318182 L15.5175879,7.62272727 L16.778392,6.35227273 L18.039196,7.62272727 L16.778392,8.89318182" id="Fill-50" fill="#26D2E9"></path>
                                <path d="M18.1361809,7.62272727 L16.8753769,6.35227273 L18.1361809,5.08181818 L19.3969849,6.35227273 L18.1361809,7.62272727" id="Fill-51" fill="#2CECFF"></path>
                                <path d="M19.3969849,6.35227273 L18.1361809,5.08181818 L19.3969849,3.81136364 L20.6577889,5.08181818 L19.3969849,6.35227273" id="Fill-52" fill="#29DAE4"></path>
                                <path d="M20.6577889,5.08181818 L19.3969849,3.81136364 L20.6577889,2.54090909 L21.918593,3.81136364 L20.6577889,5.08181818" id="Fill-53" fill="#2BDEE1"></path>
                                <path d="M22.0155779,3.81136364 L20.7547739,2.54090909 L22.0155779,1.27045455 L23.2763819,2.54090909 L22.0155779,3.81136364" id="Fill-54" fill="#2CE2DF"></path>
                                <path d="M23.2763819,2.54090909 L22.0155779,1.27045455 L23.2763819,0 L24.5371859,1.27045455 L23.2763819,2.54090909" id="Fill-55" fill="#2FECE0"></path>
                            </g>
                        </g>
                    </g>
                </g>
            </g>
        </g>
    </g>
</svg>