<?xml version="1.0" encoding="utf-8"?>
<!-- Generator: Adobe Illustrator 19.2.0, SVG Export Plug-In . SVG Version: 6.00 Build 0)  -->
<svg version="1.1" id="Layer_1" xmlns:sketch="http://www.bohemiancoding.com/sketch/ns"
	 xmlns="http://www.w3.org/2000/svg" xmlns:xlink="http://www.w3.org/1999/xlink" x="0px" y="0px" viewBox="0 0 199 46"
	 style="enable-background:new 0 0 199 46;" xml:space="preserve">
<style type="text/css">
	.st0{fill:#00AAFF;}
	.st1{fill:#3D474D;}
	.st2{fill:#FFFFFF;stroke:#000000;stroke-opacity:0.1;}
	.st3{fill:#F3B6CE;}
	.st4{fill:#F2488F;}
	.st5{fill:#F27AAC;}
</style>
<title>MindMeister 2</title>
<desc>Created with Sketch.</desc>
<g id="Logos" sketch:type="MSPage">
	<g id="MindMeister-2" transform="translate(-716.000000, -59.000000)" sketch:type="MSArtboardGroup">
		<g transform="translate(717.000000, 60.000000)" sketch:type="MSLayerGroup">
			<g id="MindMeister" transform="translate(51.000000, 7.000000)" sketch:type="MSShapeGroup">
				<path id="mind" class="st0" d="M20.1,24.1l1.5-11.2c0.4-3-1.6-5.4-4.6-5.4c-1.9,0-3.7,1-4.8,2.4C11.5,8.4,9.9,7.5,8,7.5
					c-3,0-5.8,2.4-6.2,5.4L0.3,24.1C0.2,24.7,0.6,25,1.1,25s1-0.3,1.1-0.9l1.5-11.2c0.3-2,2.1-3.6,4.1-3.6s3.3,1.6,3.1,3.6L9.3,24.1
					c-0.1,0.7,0.3,1,0.8,1s1-0.3,1.1-1l1.6-11.2c0.3-2,2.1-3.6,4.1-3.6s3.3,1.6,3.1,3.6l-1.5,11.2c-0.1,0.6,0.3,0.9,0.8,0.9
					S20,24.7,20.1,24.1L20.1,24.1z M24.5,24.1l2.1-15.3c0.1-0.6-0.3-0.9-0.8-0.9s-1,0.3-1.1,0.9l-2.1,15.3C22.6,24.7,23,25,23.5,25
					S24.4,24.7,24.5,24.1L24.5,24.1z M25.4,2.4c-0.1,0.7,0.4,1.2,1.1,1.2c0.7,0,1.3-0.6,1.4-1.2s-0.4-1.2-1.1-1.2
					C26.1,1.2,25.5,1.8,25.4,2.4L25.4,2.4z M39.2,24.1l1.5-10.5c0.5-3.3-1.9-6-5.2-6s-6.4,2.7-6.9,6l-1.5,10.5
					C27,24.7,27.4,25,27.9,25c0.5,0,1-0.3,1.1-0.9l1.5-10.5c0.3-2.3,2.4-4.2,4.7-4.2s3.9,1.9,3.6,4.2l-1.5,10.5
					c-0.1,0.6,0.3,0.9,0.8,0.9S39.1,24.7,39.2,24.1L39.2,24.1z M53.8,9.4c-0.9-1.1-2.3-2-3.9-2c-3.3,0-6.4,2.7-6.9,6l-0.8,5.7
					c-0.5,3.3,1.8,6,5.2,6s6.4-2.7,6.9-6l2.4-17.5c0.1-0.6-0.3-0.9-0.8-0.9s-1,0.3-1.1,0.9L53.8,9.4z M52.5,19.3
					c-0.3,2.3-2.4,4.2-4.8,4.2s-3.9-1.9-3.6-4.2l0.8-5.7c0.3-2.3,2.4-4.2,4.7-4.2s3.9,1.9,3.6,4.2L52.5,19.3z"/>
				<path id="meister" class="st1" d="M76.1,24.1l1.5-11.2c0.4-3-1.6-5.4-4.7-5.4c-1.9,0-3.7,1-4.8,2.4c-0.7-1.4-2.3-2.4-4.2-2.4
					c-3,0-5.8,2.4-6.2,5.4l-1.6,11.2c-0.1,0.6,0.3,0.9,0.8,0.9s1-0.3,1.1-0.9l1.5-11.2c0.3-2,2.1-3.6,4.1-3.6s3.3,1.6,3.1,3.6
					l-1.6,11.2c-0.1,0.7,0.3,1,0.8,1c0.5,0,1-0.3,1.1-1l1.6-11.2c0.3-2,2.1-3.6,4.1-3.6c2,0,3.3,1.6,3.1,3.6l-1.5,11.2
					c-0.1,0.6,0.3,0.9,0.8,0.9C75.5,25,76,24.7,76.1,24.1L76.1,24.1z M91.8,15.7l0.3-2.2c0.5-3.3-1.9-6-5.2-6s-6.4,2.7-6.9,6
					l-0.8,5.7c-0.5,3.4,2.2,6,5.5,6c1.9,0,4-0.7,5.4-2.3c0.2-0.2,0.2-0.4,0.3-0.6c0.1-0.5-0.3-0.9-0.8-0.9c-0.2,0-0.6,0.1-0.8,0.4
					c-1.1,1.1-2.5,1.5-3.7,1.5c-2.4,0-4.2-2-3.9-4.2l0.3-2.6h9.3C91.2,16.6,91.7,16.2,91.8,15.7L91.8,15.7z M90.1,14.8h-8.4l0.2-1.2
					c0.3-2.3,2.4-4.2,4.7-4.2s3.9,1.9,3.6,4.2L90.1,14.8z M94.7,24.1l2.1-15.3c0.1-0.6-0.3-0.9-0.8-0.9c-0.5,0-1,0.3-1.1,0.9
					l-2.1,15.3c-0.1,0.6,0.3,0.9,0.8,0.9C94.1,25,94.6,24.7,94.7,24.1L94.7,24.1z M95.6,2.4c-0.1,0.7,0.4,1.2,1.1,1.2S98,3.1,98,2.4
					c0.1-0.7-0.4-1.2-1.1-1.2S95.7,1.8,95.6,2.4L95.6,2.4z M107.8,20.4c0.9-6.1-8.1-4.7-7.5-8.5c0.2-1.5,1.6-2.6,3.5-2.6
					c1.2,0,2.2,0.5,2.8,1.4c0.1,0.2,0.1,0.2,0.1,0.2c0.2,0.3,0.4,0.4,0.7,0.4c0.5,0,1-0.4,1.1-0.9c0-0.2,0-0.4-0.1-0.5
					c-0.7-1.5-2.7-2.4-4.4-2.4c-2.4,0-5.2,1.5-5.6,4.4c-0.8,5.7,8.1,4.1,7.5,8.5c-0.2,1.6-1.9,3-4.3,3c-1.1,0-2.2-0.4-2.9-1.2
					c-0.1-0.1-0.1-0.2-0.1-0.2c-0.2-0.3-0.4-0.4-0.7-0.4c-0.5,0-1,0.4-1.1,0.9c0,0.2,0,0.3,0.1,0.5c0.7,1.4,2.8,2.1,4.4,2.1
					C104.4,25.3,107.4,23.4,107.8,20.4L107.8,20.4z M119.8,23.3c0.1-0.5-0.2-1-0.7-1c-0.7,0-1.5,1.1-3.2,1.1c-1.8,0-2.7-1.1-2.5-2.5
					L115,9.7h5.5c0.6,0,1-0.5,1.1-0.9c0.1-0.5-0.2-0.9-0.8-0.9h-5.5l0.5-3.9c0.1-0.6-0.3-0.9-0.8-0.9s-1,0.3-1.1,0.9l-0.5,3.9h-2.8
					c-0.6,0-1,0.5-1.1,0.9c-0.1,0.5,0.2,0.9,0.8,0.9h2.8l-1.6,11.3c-0.3,2.5,1.4,4.4,4.1,4.4c1.2,0,2.4-0.4,3.4-1.1
					C119.4,23.9,119.7,23.7,119.8,23.3L119.8,23.3z M133.8,15.7l0.3-2.2c0.5-3.3-1.9-6-5.2-6c-3.3,0-6.4,2.7-6.9,6l-0.8,5.7
					c-0.5,3.4,2.2,6,5.5,6c1.9,0,4-0.7,5.4-2.3c0.2-0.2,0.2-0.4,0.3-0.6c0.1-0.5-0.3-0.9-0.8-0.9c-0.2,0-0.6,0.1-0.8,0.4
					c-1.1,1.1-2.5,1.5-3.7,1.5c-2.4,0-4.2-2-3.9-4.2l0.3-2.6h9.3C133.2,16.6,133.7,16.2,133.8,15.7L133.8,15.7z M132.1,14.8h-8.4
					l0.2-1.2c0.3-2.3,2.4-4.2,4.7-4.2s3.9,1.9,3.6,4.2L132.1,14.8z M146.5,9.7c0-0.2,0-0.4-0.2-0.7c-0.8-1-2.4-1.5-3.6-1.5
					c-3.6,0-5.8,2.8-6.3,6.3l-1.5,10.3c-0.1,0.6,0.3,0.9,0.8,0.9c0.5,0,1-0.3,1.1-0.9l1.5-10.3c0.4-2.8,1.9-4.4,4.2-4.4
					c0.9,0,1.7,0.3,2.3,0.8c0.1,0.1,0.1,0.1,0.1,0.1c0.2,0.2,0.4,0.3,0.6,0.3C145.9,10.6,146.4,10.2,146.5,9.7L146.5,9.7z"/>
			</g>
			<g id="MindMeister_1_" sketch:type="MSShapeGroup">
				<circle id="Badge" class="st2" cx="22" cy="22" r="22"/>
				<g id="Logo" transform="translate(6.599976, 8.300003)">
					<path id="Fill-1" class="st3" d="M5.7,10.2c-0.9,1.3-1.5,3-1.5,4.5c0,0.1,0.2,0.2,0.2,0.2c0.6-1,1.3-2.3,2.1-3.2
						C6.3,11.2,6,10.7,5.7,10.2"/>
					<path id="Fill-2" class="st3" d="M28.1,16.7c-0.6,0.8-1.4,1.7-2.3,2.4c1.3,3.1,1.4,5.7,0,6.8c-1.7,1.4-5.2,0.2-9-2.7
						c-0.3-0.2-0.6-0.5-1-0.7c0,0,0,0,0,0l-0.1-0.1c-1.6-1.3-3.3-3-4.9-4.8c-1.4-1.6-2.5-3.2-3.5-4.7c-0.7,1.1-1.3,2.2-1.7,3.3
						c1,1.3,2.1,2.6,3.4,3.8c0.7,0.7,1.4,1.3,2.2,1.9c0.8,0.6,1.5,1.2,2.3,1.7c5.6,3.7,11.3,4.6,14.1,1.9
						C29.4,23.6,29.5,20.3,28.1,16.7"/>
					<path id="Fill-3" class="st4" d="M12.7,5.7c-1,0.8-2,1.6-3,2.6c-1.2,1.1-2.2,2.3-3.1,3.4c-0.8,1-1.4,2-2,2.9
						c0,0-0.1,0.1-0.1,0.1c0.1,0.9,0.3,1.8,0.8,2.6c0.1-0.4,0.2-0.8,0.4-1.2c0.4-1.1,1-2.2,1.7-3.3c0.8-1.3,1.8-2.5,2.9-3.7
						c1.5-1.5,3.1-2.8,4.7-3.8C14.1,5.4,13.4,5.5,12.7,5.7"/>
					<path id="Fill-4" class="st4" d="M27.5,2.1C25-0.3,19.6,0.9,14.2,4.6c0.3,0.2,0.6,0.4,0.9,0.7c3.8-2.2,7.4-2.7,9.4-0.9
						c2.2,2,1.7,6.2-1,10.4c0.2,0.4,0.5,0.8,0.7,1.1c0.8-1,1.5-1.8,2.1-2.8C29,8.6,29.6,4.1,27.5,2.1"/>
					<path id="Fill-5" class="st5" d="M15.1,5.2c-0.3-0.2-0.6-0.5-0.9-0.7c0,0-0.1-0.1-0.1-0.1c0,0-0.1,0-0.1,0
						c-3.5,0.7-6.6,2.2-8.9,4C4.1,9.2,3.3,10,2.6,10.9c-1.4,1.8-2.1,3.9-1.8,5.9C1,17.9,1.5,19,2.3,19.9c0.8,1,1.9,1.8,3.2,2.4
						c2.2,1,4.9,1.5,7.9,1.4c-0.8-0.5-1.5-1.1-2.3-1.7c-2.7-0.8-4.8-2.4-5.9-4.5c-0.4-0.8-0.7-1.7-0.8-2.6c0-0.1,0-0.1,0-0.2
						c0,0,0-0.1,0-0.1c0-1.5,0.4-3,1.3-4.3C7.2,8,9.7,6.4,12.7,5.7c0.7-0.2,1.4-0.3,2.2-0.3c0,0,0.1,0,0.1,0c0.1,0,0.1,0,0.2,0
						C15.1,5.3,15.1,5.3,15.1,5.2"/>
					<path id="Fill-6" class="st5" d="M29.9,10.9C29.2,6.5,23.9,3.8,17.5,4C18.3,4.6,19.2,5.3,20,6c3.6,1.2,6.1,3.9,6.3,7.1
						c0,0,0,0.1,0,0.1c0.1,1.5-0.4,3-1.2,4.3c-1.8,2.7-5.2,4.6-9.3,4.9c0.3,0.3,0.6,0.5,1,0.7c0,0,0,0,0,0c3.6-0.7,6.7-2.2,9-4.1
						c0.9-0.7,1.7-1.5,2.3-2.4C29.5,14.8,30.2,12.8,29.9,10.9"/>
					<path id="Fill-7" class="st3" d="M26.3,13.2C26.3,13.1,26.3,13.1,26.3,13.2c-1.2-2-2.7-3.8-4.5-5.6C21.2,7,20.6,6.5,20,6
						c-0.8-0.7-1.7-1.3-2.6-1.9c-5.6-3.7-11.4-4.7-14.2-2C1.3,4,1.2,7.2,2.6,10.9C3.3,10,4.1,9.2,5,8.5C3.7,5.4,3.6,2.8,5,1.7
						c1.7-1.4,5.2-0.2,9.1,2.7c0.4,0.3,0.7,0.6,1.1,0.9c1.6,1.3,3.2,2.9,4.8,4.7c2.2,2.5,3.9,5.1,5.1,7.5
						C25.9,16.2,26.4,14.7,26.3,13.2"/>
					<path id="Fill-8" class="st4" d="M23.5,14.7c-0.8,1.3-1.8,2.5-2.9,3.7c-1.5,1.6-3.2,2.9-4.9,3.9c-0.1,0-0.1,0.1-0.2,0.1
						c-3.6,2.1-7.2,2.5-9.2,0.9c0,0-0.1-0.1-0.1-0.1c-0.3-0.3-0.6-0.6-0.8-1c-1.3-0.6-2.4-1.4-3.2-2.4c-0.3,1.3-0.4,2.4-0.1,3.4h0
						c0.2,0.9,0.6,1.6,1.2,2.2c2.6,2.5,8.6,1,14.4-3.3c1.1-0.8,2.3-1.8,3.3-2.9c1.2-1.1,2.2-2.3,3.1-3.4
						C24,15.5,23.8,15.1,23.5,14.7"/>
				</g>
			</g>
		</g>
	</g>
</g>
</svg>
