<svg id="service-twitter" xmlns="http://www.w3.org/2000/svg" viewBox="0 0 124 124">
  <path fill="#55acee" d="M0 0h124v124H0z"/>
  <path fill="#fff" fill-rule="nonzero" d="M97 40.3c-2.622 1.16-5.403 1.923-8.25 2.26 2.998-1.796 5.242-4.623 6.31-7.95-2.8 1.67-5.864 2.85-9.06 3.49-2.718-2.935-6.542-4.605-10.542-4.605-7.883 0-14.37 6.487-14.37 14.37 0 1.123.13 2.243.392 3.335-11.54-.577-22.31-6.034-29.6-15-3.787 6.524-1.83 14.975 4.44 19.17-2.28-.073-4.508-.69-6.5-1.8v.18c.002 6.81 4.845 12.73 11.52 14.08-2.116.576-4.336.662-6.49.25 1.868 5.847 7.283 9.882 13.42 10-5.09 3.982-11.377 6.14-17.84 6.12-1.146 0-2.292-.066-3.43-.2 6.562 4.216 14.2 6.455 22 6.45 26.42 0 40.86-21.88 40.86-40.86v-1.86c2.802-2.034 5.22-4.55 7.14-7.43z"/>
</svg>